<?xml version="1.0" encoding="UTF-8"?>
<svg version="1.1" viewBox="0 0 2048 684" width="841" height="281" xmlns="http://www.w3.org/2000/svg">
<path transform="translate(0)" d="m0 0h2048v684h-2048z" fill="#CABAA5"/>
<path transform="translate(0)" d="m0 0h2048v684h-2048zm495 191-6 4-4 1h-150l-38 1-13 2-3 2-3 14-3 22-10-3h-4l-5 12-2 8v11l1 3-9 5-7 6-7 8-9 12-7 15-5 15-2 10v12l3 15 6 18 8 14 4 4-1 4-3 5-1 6v8l-9-2-3 8-4 8-8 10-6 9-6 2-7 13-6 4-1 7 2 6v4l-10 5-8 11v2h-8l-5 4-10 20-14 8-1 5v6l-5 6-8 7-6 7 1 8-5 2-4 10-3 4-2 7-1 5 4 5 7 1 3-1h100l18-2 36 2 34 1 6-1 8 3 19 2 8-1 3-2h14l7 2 7-1 10-1 1 1 13-1h16l4-1h56l20 1 43 5h37l10-2 5-2 7 1 1 1 8-1 5-2 9-1h40l11 5h24l9-2 7-3h12l37 2 7 1h32l15 1h13l6-2 7 1 9 3 8-1 4-2 12 1 23 2h20l3-2 7 1 5 1 3-1h21l7-3h6l4 2 7 1 9-2h8l6-1 6 4h8l5-1h19l38 2h48l5-2 3-3 3-1h11l18 5 18 2 20-7h3l3 6 7 1 8-3 10 1 13-3h10l5 4 106 1 5-3 7 1 12 2 7-3 3-3h6l8 5 25 1 13 1 11-6 6 2 7 4 50-1 15-1 10-3 7 1 5 2 64 1 23 2h23l10-5 7 1 7 2 18-3 12 2 6-3 5 1 2 2 5-1 5-3 15-2 2 5 2 2 15 2h13l5-6h22l2 4 5 1 6-5v-2l5 3 4 3 5-1 4-6 4-14 4-4h4l2 12 6 11 2 2 20-1 4-1 3-9 9-6 8-16 3-8v-5l-8-5-4-5-1-5 1-3 1-13 7-8v-17l-4-10-8-11-5-4-4-2-3-6v-5l5-7 4-22 1-22h10l1-1 1-28 6-6 2-18 4-4 4-3 1-14 1-1v-8l-1-7 1-4 1-49-10-15-1-9 1-2v-6l-3-6-1-5v-17l6-3-2-9-4-8-7-6-12-3-21-2-24 1-17 2-5-3-7 1-13 2-12-1-9-1-28-1h-72l-37-1h-32l-3 1-126 1h-25l-89-1-36 2h-10l-9-1h-38l-40-1-125-1-112 1-35 1h-321v2l-7-2-5-5-4-3h-5l-5 5-6 2-20-2h-9l-1 1h-13l-24-2-11-2-6 1-1 1h-11l-20-6z"/>
<path transform="translate(978,256)" d="m0 0h28l14 3 12 5 15 9 13 12 8 10 9 17 4 13 2 12v21l-3 14-8 19-8 12-15 15-14 9-11 5-19 5-6 1h-14l-15-3-15-5-13-7-15-12v-2h-2l-10-13-9-19-4-16-1-7v-20l5-19 8-16 8-11 9-10 17-12 13-6 11-3z" fill="#FDFDFD"/>
<path transform="translate(1509,255)" d="m0 0 19 1 15 4 16 8 10 7 9 8 8 10 9 17 4 13 2 18v92h-46l-1-4-1-51h-80l-1 55h-46v-102l4-15 5-12 6-11 12-14 14-11 17-8 15-4z" fill="#FDFDFD"/>
<path transform="translate(1097,259)" d="m0 0h40l15 3 12 5 12 7 13 12 3 4 4-2 13-13 13-8 12-5 17-3h39v173l-1 1h-45l-1-126-8 6-7 9-5 11-5 21h-50l-4-19-5-12-7-9-7-6-2-1v126h-46l-1-1v-172z" fill="#FDFDFD"/>
<path transform="translate(1616,259)" d="m0 0h50l14 3 16 8 8 6 8 8 9 15 4 14 1 14-3 16-5 12-2 4v8l3 9 4 7 7 7 9 4 5 1h11l10-4 10-9 4-6 4-15h43v11l-4 16-8 15-9 11-9 8-14 8-13 5-9 2h-23l-17-5-17-9-10-9-8-9-9-15v-2l-13 2v43h-46l-1-1z" fill="#FDFDFD"/>
<path transform="translate(612,259)" d="m0 0h45v47l13-5 8-5 5-4 7-11 5-13 2-9h46v13l-4 16-5 12-6 11-12 14-12 10-17 10-2 1 16 9 10 8 7 6 9 11 8 14 5 12 4 19v8h-47l-5-18-6-11-10-10-13-6-5-1-1 46h-46v-173z" fill="#FDFDFD"/>
<path transform="translate(317,259)" d="m0 0h46v65h18v-65h47v174l-27 1h-19l-1-1-1-66h-16v66l-40 1-7-1z" fill="#FDFDFD"/>
<path transform="translate(1306,259)" d="m0 0h49l12 2 13 5 11 7 10 9 7 10 5 11 3 14v16l-4 15-6 11-8 10-9 8-10 6-15 5-11 2v43h-46l-1-1z" fill="#FDFDFD"/>
<path transform="translate(1836,259)" d="m0 0h70l1 4v37l-1 1h-24v23h19l5 1v41h-24v26h24l1 5v36h-71l-1-2v-171z" fill="#FCFCFC"/>
<path transform="translate(289,257)" d="m0 0h16l-1 12-4 29-2 4-16 4-5 1-1 4-8 9-5 10-2 7v21l7 14 8 9 16 8 7 1 1 1v45l-12-1-19-5-16-8-10-7-13-13-6-7-8-16-6-21-1-7v-12l4-17 8-19 7-11 9-10 5-5 7-6 15-8 13-4z" fill="#FCFBFB"/>
<path transform="translate(583,257)" d="m0 0h15v10l-5 33-1 2-12 2-10 6-8 9-6 12-2 7v15l4 13 7 11 9 7 8 4 11 2 1 1v44h-12l-16-4-12-5-11-6-11-9-7-7-9-13-7-15-4-15-1-6v-21l4-15 7-16 7-11 11-12 9-8 14-8 11-4z" fill="#FDFDFD"/>
<path transform="translate(876,257)" d="m0 0h15l1 1-1 14-5 30-12 2-8 4-7 6-7 11-4 10v20l5 14 7 9 9 7 9 4 9 1v45h-10l-15-3-16-7-12-7-10-9-9-10-8-14-5-11-4-17v-23l4-15 5-12 8-14 9-11 8-7 10-7 12-6 15-4z" fill="#FDFDFD"/>
<path transform="translate(444,259)" d="m0 0h46l1 1v173h-47z" fill="#FDFDFD"/>
<path transform="translate(984,300)" d="m0 0h16l11 4 9 6 8 9 6 13 2 8v15l-5 13-6 9-7 7-10 6-11 3h-12l-11-4-10-7-8-9-6-13-1-4v-20l4-11 6-10 9-8 12-6z" fill="#CABAA5"/>
<path transform="translate(1398,487)" d="m0 0h41l11 4 8 6 6 8 4 13v12l-4 10-8 9-10 5-10 1h-37l-3-1-1-7 4-4h2l-1-43-5-6 1-6z" fill="#FDFDFD"/>
<path transform="translate(780,485)" d="m0 0h12l12 4 8 6 6 9 3 12v8l-3 12-6 10-11 8-12 3h-8l-9-2-9-5-5-4-5-8-3-11v-12l2-9 6-9 8-7 9-4z" fill="#FDFDFD"/>
<path transform="translate(1156,487)" d="m0 0h42l9 3 8 7 2 4v12l-4 6-5 4 9 6 3 3 1 3v8l-4 6-5 4-11 2h-44l-4-4 1-5 5-6v-22l-1-18-4-4-1-5 1-3z" fill="#FDFDFD"/>
<path transform="translate(486,487)" d="m0 0h37l13 4 8 7 4 9v12l-4 8-8 6-6 2-16 1 2 7 5 5-1 6-7 1h-26l-4-2v-7l5-4v-43l-4-2-1-1v-8z" fill="#FDFDFD"/>
<path transform="translate(672,482)" d="m0 0h7l1 2 2 40 8-6-1-4-1-1v-6h29v6l-5 3-11 6 10 13 9 10 3 4v5l-3 1h-28l-2-3 1-5 2-1-2-5-5-6-4 2-1 5 3 5 1 1v5l-2 2h-26l-4-2 1-7 3-2v-45l-5-4 1-5 7-4z" fill="#FDFDFD"/>
<path transform="translate(1028,482)" d="m0 0h6l1 1 1 29 12-7h9l5 3 4 5 1 3 1 26 3 6v5l-1 1-12 1h-14l-2-1v-7l2-2v-24h-8l1 25 2 2v5l-1 1h-28l-1-4 3-5v-47l-3-3 1-5 6-4z" fill="#FDFDFD"/>
<path transform="translate(843,505)" d="m0 0h7l2 3v32h7l1-1v-19l-4-2 1-5 4-3 13-5h7l2 2 1 38 3 3v5l-7 2h-11l-6-4-1-2-5 2-6 4-9 2-8-4-4-8-1-7-1-17-3-3v-5l10-5z" fill="#FDFDFD"/>
<path transform="translate(1507,300)" d="m0 0h13l12 4 9 7 6 7 5 10 2 8h-81l1-7 5-10 9-10 9-6z" fill="#CABAA5"/>
<path transform="translate(1544,505)" d="m0 0h16l8 4 3 3 1 3 1 27h5l1 1-1 7-5 5-3 1h-10l-6-4-10 4h-11l-7-4-3-7 1-7 6-7 8-3h12l-1-15h-3l1 4-2 7-4 2h-12l-4-4 1-7 5-5 8-4z" fill="#FCFCFC"/>
<path transform="translate(567,505)" d="m0 0h14l9 4 5 6 2 5-1 9-3 3-4 1h-20l5 6 2 1 9-1 8-4h3v9l-4 6-8 5-7 2-11-1-10-5-5-6-3-7v-16l5-9 8-6z" fill="#FDFDFD"/>
<path transform="translate(1491,505)" d="m0 0h15l8 4 6 7 1 3v8l-4 5-8 1h-16l4 6 3 1h7l10-5 3 1 1 5-3 7-6 5-7 3-8 1-10-2-8-5-4-5-3-7v-15l4-8 7-7z" fill="#FDFDFD"/>
<path transform="translate(1094,505)" d="m0 0h14l10 5 5 6 1 3v8l-4 5-5 1h-19l4 6 9 1 9-4 4-1 2 5-3 8-6 5-7 3h-15l-10-5-5-6-3-7v-14l5-10 8-7z" fill="#FDFDFD"/>
<path transform="translate(1242,505)" d="m0 0h14l10 5 5 6 1 2v10l-4 4-10 1h-14l4 6 2 1h8l10-5h3v9l-4 6-5 4-12 3-12-2-8-5-4-5-3-7v-14l5-10 8-7z" fill="#FDFDFD"/>
<path transform="translate(1290,505)" d="m0 0h26l3 5v12l-2 2-5-1-9-7-7-1-1 4 12 3 8 5 4 5 1 3v7l-3 7-6 5-5 2h-27l-4-6-1-3v-8l3-3 7 2 9 8 5 1 2-6-16-4-6-4-3-5v-12l6-7z" fill="#FDFDFD"/>
<path transform="translate(1631,505)" d="m0 0h25l3 6 1 9-3 4-5-1-9-7-7-1 1 4 13 4 8 7 2 4v11l-6 8-8 3h-27l-3-4-1-3v-10l2-2 7 1 8 7 6 2h2v-5l-16-5-7-6-2-5v-8l4-7 6-4z" fill="#FDFDFD"/>
<path transform="translate(620,505)" d="m0 0h14l10 5 3 4 1 9-5 6-2 1h-7l-5-3-3-8v-3l-4 1-1 2v12l4 6 4 2h7l7-3h5v8l-4 6-8 5-6 2h-8l-11-4-6-5-5-9-1-10 3-10 6-8 8-5z" fill="#FDFDFD"/>
<path transform="translate(1599,482)" d="m0 0h7l1 1 1 12 1 50 3 3v5l-4 2h-22l-5-2-1-4 4-5v-46l-3-2v-6l12-6z" fill="#FDFDFD"/>
<path transform="translate(912,490)" d="m0 0 5 1 2 3v12l15 1v6l-5 3-10 1 1 24 9-3 5 1-1 8-5 5-8 4h-12l-8-4-3-5-2-31-4-3v-5l9-4 8-11z" fill="#FDFDFD"/>
<path transform="translate(983,490)" d="m0 0 4 1 2 2 2 13 13 1 1 4-2 4-8 2h-5l1 23 7-1 6-1 1 4-3 7-6 5-5 2h-13l-8-5-3-8-1-28-4-2v-5l9-4 6-9z" fill="#FDFDFD"/>
<path transform="translate(1343,490)" d="m0 0 5 2 1 1v13l15 1v7l-5 2-10 1 1 19 2 4 6-1 5-2 1 1v7l-4 6-6 4-3 1h-13l-6-3-4-5-1-3-1-27-5-5v-5l9-3 9-13z" fill="#FDFDFD"/>
<path transform="translate(778,496)" d="m0 0 5 1 5 6 5 12 3 16v8l-3 6-2 1-5-3-6-10-4-14-1-17z" fill="#CABAA5"/>
<path transform="translate(1353,301)" d="m0 0 5 1 6 4 5 6 3 7v11l-5 10-8 6-6 1z" fill="#CABAA5"/>
<path transform="translate(1663,301)" d="m0 0 5 1 8 6 5 8 1 3v11l-4 8-9 8-6 1z" fill="#CABAA5"/>
<path transform="translate(277,309)" d="m0 0h2l3 21v8l-3 8-3 6-4 1-5-6v-2h-2l-2 11-3 1v-20l4-12 7-10z"/>
<path transform="translate(1426,498)" d="m0 0h6l6 5 4 9 1 5v12l-3 10-4 4h-9l-1-2z" fill="#CABAA5"/>
<path transform="translate(514,498)" d="m0 0 5 2 4 5 1 2v11l-4 6-7 1v-25z" fill="#CABAA5"/>
<path transform="translate(1184,497)" d="m0 0 6 1 3 3 2 7-1 8-4 4-5 1-1-1z" fill="#CABAA5"/>
<path transform="translate(1184,529)" d="m0 0 9 1 3 3 1 8-2 3-5 1-5-3-1-4z" fill="#CABAA5"/>
<path transform="translate(1245,516)" d="m0 0 4 1 1 7-1 1h-6l-1-3z" fill="#CBBCA8"/>
<path transform="translate(570,516)" d="m0 0 4 2 1 6-1 1h-7l1-6z" fill="#D0C3B0"/>
<path transform="translate(1097,516)" d="m0 0 4 1 1 7-5 2-2-1 1-8z" fill="#CABAA5"/>
<path transform="translate(1494,516)" d="m0 0 4 1 1 7-1 1h-6l-1-2z" fill="#CABAA5"/>
</svg>
