<svg width="114" height="25" viewBox="0 0 114 25" fill="none" xmlns="http://www.w3.org/2000/svg">
<path fill-rule="evenodd" clip-rule="evenodd" d="M90.5585 21.4907C90.4863 20.9206 90.4482 20.3202 90.4482 19.6973V12.7551V12.7248C90.4482 12.4872 90.4257 12.2534 90.3845 12.0227C90.1352 10.7287 89.2591 9.6522 88.0855 9.12016C87.5915 8.91977 87.0587 8.77996 86.4847 8.70074C85.7717 8.60288 85.0657 8.55394 84.3705 8.55394C83.6008 8.55394 82.8389 8.62928 82.0792 8.77996C81.3204 8.93453 80.6377 9.18773 80.0295 9.54657C79.8602 9.64521 79.6979 9.75395 79.5425 9.87511L79.5456 9.87899C79.5355 9.88987 79.52 9.89763 79.5084 9.90851C79.4936 9.92016 79.4781 9.92793 79.4672 9.9388C79.4524 9.95045 79.4408 9.95822 79.4291 9.96987C78.4932 10.7015 77.8889 12.0872 77.8664 13.3594V13.4231V13.4425H81.6645C81.7025 13.0572 81.7662 12.665 81.8944 12.3209H81.8983C82.0979 11.785 82.5437 11.3695 83.0991 11.2033C83.416 11.1054 83.7973 11.0565 84.2501 11.0565C84.8202 11.0565 85.2769 11.1435 85.635 11.298C85.6474 11.3019 85.6575 11.3058 85.6661 11.3097V11.3128C86.2284 11.5551 86.6206 12.1136 86.6206 12.7668C86.6206 13.4464 86.1903 14.0273 85.583 14.2503C85.489 14.2844 85.3865 14.3147 85.2808 14.3404C84.8536 14.4468 84.3596 14.526 83.809 14.5788C83.2536 14.6347 82.6905 14.707 82.1212 14.7932C81.5464 14.884 80.981 15.0052 80.4187 15.1559C80.2447 15.2056 79.9309 15.326 79.9309 15.326C78.64 15.8394 77.6816 17.0021 77.4625 18.4103C77.4431 18.599 77.433 18.7955 77.433 18.999C77.433 19.2973 77.4548 19.5807 77.4967 19.8448C77.8058 21.3508 79.0672 22.6114 80.4637 22.9175C80.6377 22.9555 81.2676 23.1217 82.1771 23.1217C82.849 23.1217 83.8431 23.0006 84.6657 22.752C85.4843 22.498 86.1981 22.0608 86.8094 21.4378C86.8241 21.6685 86.8583 21.8984 86.9002 22.1213C86.9461 22.3435 87.0059 22.5625 87.0742 22.7776H90.9313C90.7542 22.491 90.63 22.0608 90.5585 21.4907ZM86.6509 17.4254C86.6509 17.6367 86.6284 17.9233 86.5834 18.2782C86.5375 18.6371 86.4171 18.9874 86.2206 19.3384C86.0241 19.6864 85.722 19.9846 85.3111 20.2332C84.8995 20.4864 84.3177 20.6114 83.5705 20.6114C83.3103 20.6114 82.974 20.5881 82.6905 20.5392C82.574 20.5167 82.4303 20.4677 82.4303 20.4677C82.0272 20.324 81.6862 20.0406 81.4718 19.6747C81.3623 19.4899 81.2862 19.2825 81.2489 19.0635V19.0596C81.2419 19.0145 81.2373 18.9687 81.2334 18.9237C81.2295 18.8747 81.2295 18.825 81.2295 18.7722C81.2295 18.7233 81.2295 18.6743 81.2334 18.6254C81.2334 18.6068 81.2334 18.5912 81.2373 18.5726C81.245 18.4973 81.2862 18.3163 81.2901 18.3008C81.4454 17.7307 81.8757 17.2701 82.4303 17.0775C82.4684 17.0666 82.5064 17.0549 82.5437 17.0433C83.1666 16.874 84.0125 16.7303 84.4008 16.6736C84.7029 16.6285 84.9934 16.5943 85.2692 16.5384C85.5488 16.4848 85.8059 16.4173 86.0466 16.338C86.2882 16.2588 86.4894 16.1454 86.6509 16.0017V17.4254ZM56.6664 21.4907C56.5941 20.9206 56.5569 20.3202 56.5569 19.6973V12.7551C56.5569 12.7551 56.553 12.7326 56.553 12.7248C56.553 12.4872 56.5336 12.2534 56.4932 12.0227C56.2392 10.7287 55.3677 9.6522 54.1902 9.12016C53.6994 8.91977 53.1666 8.77996 52.5934 8.70074C51.8796 8.60288 51.1735 8.55394 50.4784 8.55394C49.7087 8.55394 48.9467 8.62928 48.1871 8.77996C47.4291 8.93453 46.7456 9.18773 46.1382 9.54657C45.9681 9.64521 45.8058 9.75395 45.6512 9.87511L45.6551 9.87899C45.6434 9.88987 45.6279 9.89763 45.617 9.90851C45.6015 9.92016 45.5867 9.92793 45.5712 9.9388C45.5596 9.95045 45.5487 9.95822 45.5339 9.96987C44.6011 10.7015 43.9976 12.0872 43.9743 13.3594V13.4231V13.4425H47.7724C47.8097 13.0572 47.8749 12.665 48.0023 12.3209C48.2066 11.785 48.6516 11.3695 49.2069 11.2033C49.5238 11.1054 49.9052 11.0565 50.358 11.0565C50.925 11.0565 51.3848 11.1435 51.7429 11.298C51.7553 11.3019 51.7623 11.3058 51.7732 11.3097V11.3128C52.3363 11.5551 52.7285 12.1136 52.7285 12.7668C52.7285 13.4464 52.2943 14.0273 51.6908 14.2503C51.5968 14.2844 51.4943 14.3147 51.3887 14.3404C50.9584 14.4468 50.4675 14.526 49.9168 14.5788C49.3615 14.6347 48.7992 14.707 48.2291 14.7932C47.6551 14.884 47.0889 15.0052 46.5265 15.1559C46.3495 15.2056 46.0357 15.326 46.0357 15.326C44.7495 15.8394 43.7895 17.0021 43.5665 18.4103C43.5518 18.599 43.5409 18.7955 43.5409 18.999C43.5409 19.2973 43.5627 19.5807 43.6046 19.8448C43.9137 21.3508 45.1751 22.6114 46.5716 22.9175C46.7417 22.9555 47.3755 23.1217 48.2819 23.1217C48.9576 23.1217 49.9502 23.0006 50.7697 22.752C51.593 22.498 52.306 22.0608 52.9141 21.4378C52.9328 21.6685 52.9631 21.8984 53.0081 22.1213C53.0539 22.3435 53.1099 22.5625 53.1821 22.7776H57.04C56.859 22.491 56.7339 22.0608 56.6664 21.4907ZM52.7588 17.4254C52.7588 17.6367 52.7332 17.9233 52.6912 18.2782C52.6454 18.6371 52.525 18.9874 52.3285 19.3384C52.132 19.6864 51.8268 19.9846 51.419 20.2332C51.0073 20.4864 50.4256 20.6114 49.6745 20.6114C49.4143 20.6114 49.0827 20.5881 48.7945 20.5392C48.678 20.5167 48.5382 20.4677 48.5382 20.4677C48.1312 20.324 47.791 20.0406 47.5798 19.6747C47.4703 19.4899 47.391 19.2825 47.3569 19.0635V19.0596C47.3499 19.0145 47.346 18.9687 47.3413 18.9237C47.3382 18.8747 47.3343 18.825 47.3343 18.7722C47.3343 18.7233 47.3382 18.6743 47.3413 18.6254C47.3413 18.6068 47.3413 18.5912 47.346 18.5726C47.353 18.4973 47.3949 18.3163 47.3988 18.3008C47.5534 17.7307 47.9837 17.2701 48.5382 17.0775C48.5763 17.0666 48.6143 17.0549 48.6485 17.0433C49.2753 16.874 50.1211 16.7303 50.5056 16.6736C50.8108 16.6285 51.1021 16.5943 51.3778 16.5384C51.6567 16.4848 51.9137 16.4173 52.1553 16.338C52.3969 16.2588 52.5972 16.1454 52.7588 16.0017V17.4254ZM112.679 11.2188C112.426 10.5842 112.079 10.0708 111.633 9.67861C111.189 9.28637 110.652 8.99899 110.026 8.82191C109.399 8.64404 108.723 8.55394 107.991 8.55394C107.028 8.55394 106.19 8.78385 105.484 9.2522C104.782 9.71666 104.224 10.2526 103.812 10.8569C103.438 9.99938 102.887 9.40288 102.166 9.06346C101.442 8.72404 100.641 8.55394 99.7686 8.55394C98.856 8.55394 98.0474 8.74967 97.3453 9.14268C96.7115 9.49375 96.1639 9.97686 95.6956 10.5842V8.92754H92.2835H91.8944V22.7776H95.6956V14.7411C95.6956 14.0615 95.7942 13.5139 95.9899 13.0945C96.1864 12.6759 96.4249 12.3551 96.6998 12.1283C96.9756 11.9062 97.2622 11.7547 97.5565 11.6755C97.6513 11.6491 97.7383 11.6305 97.8175 11.6118C97.9379 11.5924 98.0591 11.5815 98.1833 11.5815C99.395 11.5815 100.392 12.4872 100.535 13.6576C100.539 13.7027 100.542 13.7446 100.547 13.7897C100.562 14.1936 100.573 14.5974 100.573 15.0091V22.7776H104.374V15.0619C104.374 14.6347 104.405 14.2091 104.468 13.7897C104.51 13.5217 104.575 13.2685 104.669 13.0347C105.028 12.1819 105.87 11.5815 106.854 11.5815C108.014 11.5815 108.98 12.4149 109.184 13.5178C109.188 13.5481 109.191 13.5815 109.195 13.6157C109.233 14.0273 109.247 14.4654 109.247 14.9299V22.7776H113.053V13.5101C113.053 12.6153 112.929 11.8526 112.679 11.2188ZM70.8225 11.9209C70.6718 11.2149 70.4077 10.6184 70.0334 10.1283C69.6598 9.63744 69.1464 9.2522 68.4932 8.97647C67.84 8.69686 67.0066 8.56171 65.9906 8.56171C65.4353 8.56171 64.8916 8.64793 64.3596 8.81802C63.4384 9.13103 62.6345 9.70113 62.038 10.4413C61.9774 10.5244 61.9207 10.6075 61.8648 10.6945V8.91977H58.059V8.93453V11.6452V22.7815H61.8648V15.5217C61.8648 14.1143 62.0947 13.0984 62.5584 12.4833C62.6151 12.4118 62.6726 12.3474 62.7324 12.2837L62.7285 12.2798C63.0345 11.9287 63.4345 11.6607 63.8873 11.5171C64.1219 11.4417 64.3712 11.4037 64.6314 11.4037C65.7491 11.4037 66.692 12.1244 67.0283 13.1287C67.1759 13.6235 67.2473 14.2308 67.2473 14.9602V22.7815H71.0524V14.265C71.0524 13.4083 70.977 12.627 70.8225 11.9209ZM42.2725 15.6926C41.9556 15.1295 41.544 14.6619 41.0337 14.2953C40.5242 13.9256 39.9432 13.6351 39.29 13.4161C38.6368 13.2009 37.9766 13.0153 37.3009 12.8646C36.6057 12.7139 35.9339 12.5703 35.2807 12.4421C34.6275 12.3139 34.0496 12.1547 33.537 11.9699C33.5028 11.959 33.3102 11.8829 33.3024 11.879C33.276 11.8681 33.1145 11.7967 33.1106 11.7967C32.9817 11.7322 32.8574 11.6685 32.744 11.6002C32.2982 11.3097 31.9999 10.8071 31.9999 10.2332C31.9999 9.55045 32.4271 8.96171 33.0275 8.72404C33.318 8.62151 33.6271 8.55006 33.9556 8.50812C34.3106 8.46695 34.6197 8.44443 34.8807 8.44443C35.704 8.44443 36.4356 8.59511 37.0741 8.90113C37.7125 9.20326 38.1195 9.79977 38.2935 10.6868H42.1591C42.0535 9.75394 41.7886 8.96171 41.3661 8.30074C40.9397 7.63666 40.4116 7.10074 39.7731 6.68908C39.1316 6.27743 38.4178 5.97918 37.6294 5.79743C36.8364 5.61335 36.0061 5.5186 35.1409 5.5186C34.382 5.5186 33.5859 5.59782 32.751 5.7485C31.9176 5.89996 31.158 6.16403 30.476 6.54539C29.7964 6.92287 29.2294 7.42151 28.7883 8.04054C28.3417 8.65569 28.1195 9.41841 28.1195 10.3318C28.1195 11.1738 28.271 11.8829 28.5762 12.4607C28.8784 13.0308 29.2861 13.5023 29.7964 13.8728C30.3059 14.2425 30.8791 14.533 31.5168 14.7481C32.1553 14.9679 32.8232 15.1481 33.5145 15.3035C34.1863 15.4541 34.8465 15.594 35.4997 15.726C36.149 15.8549 36.7269 16.0134 37.2372 16.1943C37.7265 16.3714 38.1312 16.606 38.4519 16.8926L38.4481 16.8965C38.7952 17.2173 39.0112 17.674 39.0112 18.1835C39.0112 18.6899 38.7952 19.1427 38.4558 19.4674C38.2446 19.6561 37.9952 19.8068 37.7086 19.9163C37.3195 20.067 36.9001 20.1734 36.4551 20.2262C36.0131 20.2782 35.617 20.3054 35.269 20.3054C34.2725 20.3054 33.4197 20.0903 32.7028 19.6561C31.9898 19.225 31.5774 18.467 31.4679 17.3835H27.7646C27.784 18.38 27.9875 19.2413 28.365 19.9652C28.7463 20.6907 29.2675 21.298 29.9277 21.785C30.5925 22.272 31.3739 22.6347 32.2756 22.8763C33.1743 23.114 34.1599 23.2312 35.224 23.2312C36.0923 23.2312 36.9685 23.1326 37.8586 22.94C38.7502 22.7435 39.558 22.4305 40.2865 21.9963C41.0112 21.5621 41.6046 20.9998 42.0613 20.3054C42.5172 19.6142 42.744 18.7691 42.744 17.7718C42.744 16.9493 42.5855 16.2549 42.2725 15.6926ZM72.5064 22.7776H76.3115V3.65374H72.5064V22.7776ZM10.8232 18.5237C10.7168 18.8483 10.7206 20.3054 10.7284 20.6075V24.9936L14.4612 24.9975C14.6842 24.9975 14.8092 25.0052 14.9715 24.9936C15.0205 24.9936 15.0702 24.9897 15.1144 24.9858C15.2845 24.9672 15.436 24.926 15.6395 24.8204C15.6511 24.8126 15.6581 24.8056 15.6698 24.7971C16.0923 24.5516 16.3758 24.0918 16.3758 23.5668C16.3758 23.5326 16.3758 23.5023 16.3719 23.4689C16.3719 22.9594 16.3719 22.1773 16.3758 21.827C16.3875 21.0037 16.4814 19.9769 16.7719 19.4215L19.9432 14.2689H19.9393C20.0939 14.0429 20.1809 13.771 20.1809 13.4534V13.4316C20.1809 13.1745 20.1133 12.9664 19.996 12.7932C19.9882 12.7815 19.9813 12.7699 19.9696 12.759C14.1669 4.95627 11.4422 1.20403 11.37 1.10228C11.3544 1.07898 11.3397 1.06034 11.3249 1.04559V1.04093C11.3016 1.01918 11.2799 0.99976 11.2457 0.99976C11.2457 0.99976 11.2038 0.995877 11.1742 1.03005V1.03393C11.1618 1.04947 11.1432 1.07898 11.1245 1.10927C11.102 1.13957 11.0834 1.17374 11.0639 1.20403C11.0601 1.21568 11.0531 1.21879 11.0531 1.21879H11.057C10.2601 2.60054 11.0834 3.80831 11.6457 4.83899C11.9253 5.36792 12.1925 5.83938 12.4651 6.2852V6.28831C13.0274 7.20948 13.7141 8.25181 14.3673 9.29725C14.8698 9.99938 15.1711 10.7994 15.1711 11.7998C15.1711 12.804 14.768 13.9101 14.1669 14.7108C13.4608 15.813 12.5482 16.4017 11.5587 17.3159C11.1579 17.6887 10.9358 18.0064 10.8232 18.5237ZM8.62161 17.315C7.62899 16.4008 6.71559 15.812 6.01267 14.7099C5.41306 13.9091 5.0084 12.8031 5.0084 11.7988C5.0084 10.7984 5.31053 9.99843 5.81306 9.29629C6.46627 8.25085 7.15287 7.20852 7.71598 6.28735V6.28425C7.98394 5.83842 8.25579 5.36696 8.5354 4.83803C9.09695 3.80734 9.92026 2.59957 9.12336 1.21782C9.12336 1.21782 9.11948 1.21471 9.11249 1.20306C9.09307 1.17277 9.07443 1.1386 9.05501 1.10831C9.03637 1.07801 9.01773 1.0485 9.00686 1.03297L9.00297 1.02908C8.97268 0.994907 8.93462 0.99879 8.93462 0.99879C8.90045 0.99879 8.87482 1.01821 8.85229 1.03996V1.04462C8.83676 1.05937 8.82588 1.07801 8.81035 1.10132C8.73812 1.20306 6.01267 4.95531 0.210713 12.7581C0.19984 12.7689 0.191296 12.7806 0.181199 12.7922C0.0670237 12.9654 -0.000549316 13.1736 -0.000549316 13.4307V13.4524C-0.000549316 13.7701 0.0864412 14.0419 0.237121 14.268H0.234014L3.40839 19.4206C3.69888 19.9759 3.79364 21.0027 3.80451 21.826C3.80839 22.1763 3.80839 22.9585 3.80839 23.468C3.80451 23.5014 3.80451 23.5317 3.80451 23.5659C3.80451 24.0909 4.08801 24.5507 4.51053 24.7962C4.5183 24.8047 4.52917 24.8117 4.54082 24.8195C4.7451 24.9251 4.89189 24.9663 5.06199 24.9849C5.11092 24.9888 5.15985 24.9927 5.20879 24.9927C5.37112 25.0043 5.49539 24.9965 5.7152 24.9965H5.71908L9.44802 24.9927V20.6066C9.45967 20.3045 9.46356 18.8474 9.35793 18.5227C9.24453 18.0055 9.02084 17.6878 8.62161 17.315ZM10.0939 7.78346C7.90045 7.78346 6.12647 9.55822 6.12647 11.7508C6.12647 13.9404 7.90045 15.7182 10.0939 15.7182C12.2834 15.7182 14.062 13.9404 14.062 11.7508C14.062 9.55822 12.2834 7.78346 10.0939 7.78346Z" fill="#0075C9"/>
</svg>
